<svg width="137" height="193" viewBox="0 0 137 193" fill="none" xmlns="http://www.w3.org/2000/svg">
<path d="M48.6609 43.2689C47.3552 43.7698 46.0218 44.1943 44.6675 44.5405C42.8785 44.9795 41.8685 45.183 40.1418 44.5083C40.0811 44.4846 40.0232 44.4611 39.9686 44.4381C36.6958 43.0369 33.8981 40.708 31.9161 37.7348C29.934 34.7615 28.8532 31.2722 28.805 27.6916C28.7964 27.5688 28.7964 27.4397 28.7964 27.3137C28.7947 26.7068 28.8235 26.1003 28.8827 25.4963C28.9584 24.6737 29.0891 23.8572 29.2739 23.0522L29.2566 23.0491C27.8587 21.6097 27.3208 19.6381 27.4991 17.657C27.6213 16.3139 28.0446 15.0162 28.7372 13.8618C29.4298 12.7073 30.3736 11.7262 31.4974 10.9924C33.2587 9.87738 35.2446 9.17156 37.3108 8.92625C37.8656 8.86184 38.4235 8.82923 38.982 8.82861H44.2287C45.3123 8.57315 46.4132 8.3984 47.5223 8.30577H47.5309C58.0905 7.42388 66.4179 14.4727 65.6413 23.0491C65.6355 23.0585 65.6269 23.068 65.6211 23.0774C65.3968 23.4459 65.1983 23.7955 65.0228 24.1294C64.8531 24.4412 64.7093 24.7404 64.5856 25.0239C63.622 27.216 68.2013 61.2269 66.5588 61.7434C65.624 62.0363 61.8558 36.7279 62.5318 41.5405C63.3832 47.5782 53.5256 41.4582 48.6609 43.2689Z" fill="#2F2E41"/>
<path d="M64.5685 104.751L79.2061 136.15L22.8984 130.408L34.6524 100.265L64.5685 104.751Z" fill="#FFB6B6"/>
<path d="M93.9521 167.705C84.1605 170.987 73.8418 172.379 63.5377 171.807L59.0569 164.49C59.0569 164.49 58.8693 167.215 58.5895 171.381C53.6844 170.809 48.8433 169.775 44.1296 168.294C35.1903 165.48 26.8108 161.119 18.3168 157.097C16.5963 146.77 15.9508 130.846 25.4624 121.576L76.6587 131.022C76.6587 131.022 84.8729 137.209 82.6755 139.425C80.478 141.637 80.1378 141.295 81.5815 142.748C83.0253 144.202 86.145 146.146 86.1768 147.417C86.1895 147.913 89.6908 156.914 93.9521 167.705Z" fill="#2F2E41"/>
<path d="M55.6283 44.0756L43.2595 44.9445L35.265 52.723L32.4652 53.2262C29.9485 53.678 27.6839 55.044 26.1009 57.0652C24.518 59.0864 23.7266 61.6222 23.877 64.1918C24.4529 74.0166 25.7424 88.6965 28.4375 93.4592C32.6165 100.844 36.0683 98.5271 32.6165 100.844C29.1647 103.161 26.8473 101.341 28.4375 105.002C30.0276 108.664 26.2882 113.361 26.2882 113.361L24.7996 114.86L26.3785 115.512L76.6864 122.103C76.6864 122.103 72.3364 102.41 75.0568 97.5721C77.7772 92.7344 84.3732 78.111 78.4864 72.3891L72.7305 51.9938L62.8297 49.0535L55.6283 44.0756Z" fill="#FFB85A"/>
<path d="M130.503 124.903C129.675 124.876 128.863 124.669 128.122 124.296C127.382 123.922 126.731 123.391 126.214 122.739C125.698 122.087 125.328 121.33 125.131 120.52C124.933 119.711 124.913 118.867 125.071 118.049L101.473 101.956L104.288 94.2897L132.178 113.609C133.526 113.979 134.693 114.835 135.457 116.014C136.221 117.193 136.529 118.613 136.322 120.005C136.116 121.397 135.409 122.665 134.337 123.567C133.264 124.47 131.9 124.945 130.503 124.903V124.903Z" fill="#FFB6B6"/>
<path d="M63.849 51.0306L60.4199 52.3978L78.7123 88.371L116.581 114.362L122.039 105.072L93.2134 80.0017L81.673 57.7158C80.0488 54.5795 77.3282 52.1604 74.0363 50.9257C70.7445 49.6911 67.1151 49.7285 63.849 51.0306Z" fill="#FFB85A"/>
<path d="M48.8 40.9119C55.6594 40.9119 61.2201 35.3128 61.2201 28.4059C61.2201 21.4991 55.6594 15.9 48.8 15.9C41.9406 15.9 36.3799 21.4991 36.3799 28.4059C36.3799 35.3128 41.9406 40.9119 48.8 40.9119Z" fill="#FFB6B6"/>
<path d="M59.6006 23.1175C59.3935 23.2276 59.1893 23.329 58.9822 23.4303C58.7664 23.5346 58.5507 23.6389 58.3321 23.7373C54.1756 25.6345 50.79 25.8459 48.7361 23.1175C48.68 21.6821 48.359 20.2698 47.7898 18.9526C47.8904 20.4246 47.5051 21.8888 46.6939 23.1175H42.5575C38.2974 25.9646 36.1113 28.5801 39.0683 37.9266C39.261 38.5406 40.5813 60.356 40.9581 62.033C34.5091 59.5421 28.9459 33.0955 28.805 26.1268C28.7964 26.0139 28.7964 25.8951 28.7964 25.7793C28.7947 25.221 28.8235 24.6631 28.8827 24.1081C28.9586 23.3503 29.0893 22.5991 29.2739 21.8605L29.2566 21.8576C28.6004 21.226 28.0999 20.4487 27.7947 19.5879C27.4896 18.727 27.3884 17.8063 27.4991 16.899C28.5809 15.4727 29.9198 14.2642 31.4456 13.3365C32.8331 12.66 34.2793 12.1132 35.7661 11.703C35.8035 11.6943 35.8351 11.6856 35.8725 11.6769C36.327 11.5524 36.793 11.4394 37.259 11.3409C38.2193 11.1382 39.1902 10.9902 40.1671 10.8978C40.239 10.8949 40.308 10.8891 40.3713 10.8891C40.7621 10.8894 41.1456 10.9954 41.4817 11.1961C41.4845 11.1961 41.4845 11.199 41.4903 11.199C41.8132 11.3933 42.081 11.668 42.2679 11.9967C42.4548 12.3255 42.5545 12.6971 42.5575 13.0758H47.1656C47.3353 13.0758 47.505 13.0816 47.6747 13.0903C54.0921 13.3481 59.2497 16.1112 59.5805 22.463C59.5949 22.6831 59.6006 22.8974 59.6006 23.1175Z" fill="#2F2E41"/>
<path d="M32.3565 23.6203C36.8755 23.6203 40.5389 19.9316 40.5389 15.3813C40.5389 10.831 36.8755 7.14233 32.3565 7.14233C27.8375 7.14233 24.1741 10.831 24.1741 15.3813C24.1741 19.9316 27.8375 23.6203 32.3565 23.6203Z" fill="#2F2E41"/>
<path d="M43.5903 11.5705C42.6607 16.0235 38.0744 18.6867 33.6868 17.5973C31.5798 17.0741 29.7655 15.7296 28.643 13.8595C27.5205 11.9894 27.1818 9.74693 27.7014 7.62537C28.7833 3.20745 34.1082 4.48109 37.6049 1.5986C42.5514 -2.47909 44.8439 5.56539 43.5903 11.5705Z" fill="#2F2E41"/>
<path d="M25.4101 135.523C32.3838 106.888 46.2016 82.2756 69.0857 62.992C69.9714 61.525 71.3988 60.4716 73.0548 60.0629C74.7108 59.6543 76.4602 59.9237 77.9192 60.8122L132.321 94.0248C133.777 94.9166 134.824 96.3539 135.229 98.0213C135.635 99.6888 135.368 101.45 134.485 102.919C125.751 132.302 112.668 157.799 90.8098 175.451C89.9241 176.918 88.4967 177.971 86.8407 178.38C85.1847 178.788 83.4353 178.519 81.9764 177.63L27.575 144.418C26.1181 143.526 25.0719 142.089 24.666 140.421C24.2602 138.754 24.5278 136.992 25.4101 135.523Z" fill="#F2F2F2"/>
<path opacity="0.2" d="M35.0794 145.174C33.6224 144.282 32.5763 142.845 32.1704 141.177C31.7646 139.51 32.0322 137.748 32.9145 136.279C39.8882 107.644 53.706 83.0315 76.59 63.7479C77.1763 62.7876 78.0041 62.0003 78.9896 61.4656L77.9191 60.812C76.4601 59.9236 74.7108 59.6542 73.0548 60.0628C71.3988 60.4714 69.9714 61.5248 69.0857 62.9918C46.2016 82.2754 32.3838 106.888 25.4101 135.523C24.5278 136.992 24.2602 138.754 24.666 140.421C25.0719 142.089 26.118 143.526 27.575 144.418L81.9762 177.63C82.9445 178.217 84.0496 178.535 85.1795 178.553C86.3094 178.571 87.4239 178.288 88.4101 177.733L35.0794 145.174Z" fill="black"/>
<path d="M98.8782 129.175L62.3615 107.02C61.7814 106.667 61.3641 106.097 61.2013 105.434C61.0385 104.772 61.1436 104.071 61.4934 103.487C61.8433 102.902 62.4093 102.481 63.0671 102.317C63.7249 102.152 64.4207 102.257 65.0018 102.608L101.518 124.763C102.097 125.117 102.513 125.687 102.675 126.349C102.837 127.011 102.732 127.71 102.382 128.294C102.033 128.878 101.468 129.299 100.811 129.464C100.154 129.629 99.4591 129.525 98.8782 129.175L98.8782 129.175Z" fill="white"/>
<path d="M77.6348 99.7959L69.6012 94.9219C69.019 94.5712 68.599 94.002 68.4336 93.3395C68.2682 92.677 68.371 91.9755 68.7193 91.3892C69.0676 90.803 69.6329 90.3801 70.2908 90.2136C70.9488 90.047 71.6455 90.1505 72.2277 90.5012L72.2415 90.5096L80.2752 95.3837C80.8541 95.7373 81.2701 96.3076 81.4321 96.9695C81.5941 97.6315 81.4889 98.3312 81.1395 98.9151C80.79 99.4991 80.2249 99.9197 79.5679 100.085C78.911 100.25 78.2158 100.146 77.6348 99.7959Z" fill="white"/>
<path d="M93.0743 138.874L56.5577 116.719C55.9769 116.367 55.5587 115.797 55.395 115.135C55.2313 114.472 55.3355 113.771 55.6848 113.186C56.034 112.601 56.5996 112.179 57.2574 112.014C57.9152 111.848 58.6113 111.953 59.1928 112.304L59.198 112.307L95.7146 134.462C96.2934 134.815 96.7093 135.386 96.8712 136.047C97.0331 136.709 96.9278 137.409 96.5784 137.993C96.229 138.577 95.664 138.997 95.0072 139.162C94.3504 139.328 93.6553 139.224 93.0743 138.874L93.0743 138.874Z" fill="white"/>
<path d="M103.515 87.4019C109.406 87.4019 114.181 82.5937 114.181 76.6624C114.181 70.7312 109.406 65.923 103.515 65.923C97.6248 65.923 92.8496 70.7312 92.8496 76.6624C92.8496 82.5937 97.6248 87.4019 103.515 87.4019Z" fill="#3F3D56"/>
<path d="M85.1305 191.739C97.7206 191.739 107.927 181.463 107.927 168.785C107.927 156.108 97.7206 145.831 85.1305 145.831C72.5403 145.831 62.334 156.108 62.334 168.785C62.334 181.463 72.5403 191.739 85.1305 191.739Z" fill="white"/>
<path d="M85.1306 192.06C80.559 192.06 76.0901 190.695 72.2889 188.137C68.4878 185.58 65.5251 181.945 63.7756 177.692C62.0261 173.439 61.5684 168.76 62.4603 164.245C63.3521 159.73 65.5535 155.583 68.7862 152.328C72.0188 149.073 76.1374 146.857 80.6211 145.958C85.1049 145.06 89.7524 145.521 93.9761 147.283C98.1997 149.044 101.81 152.027 104.35 155.855C106.889 159.682 108.245 164.182 108.245 168.785C108.238 174.956 105.801 180.872 101.467 185.235C97.1341 189.598 91.2589 192.053 85.1306 192.06ZM85.1306 146.152C80.6848 146.152 76.3388 147.479 72.6422 149.966C68.9457 152.453 66.0645 155.988 64.3632 160.124C62.6619 164.26 62.2167 168.811 63.0841 173.201C63.9514 177.592 66.0923 181.625 69.236 184.79C72.3797 187.955 76.385 190.111 80.7454 190.984C85.1058 191.858 89.6255 191.409 93.7329 189.696C97.8403 187.983 101.351 185.082 103.821 181.36C106.291 177.638 107.609 173.262 107.609 168.785C107.602 162.785 105.232 157.032 101.018 152.788C96.8038 148.545 91.0902 146.158 85.1306 146.152Z" fill="#3F3D56"/>
<path d="M82.0207 180.732C81.6271 180.732 81.2388 180.64 80.8867 180.462C80.5346 180.285 80.2284 180.028 79.9923 179.71L73.7731 171.361C73.5729 171.092 73.4273 170.787 73.3444 170.462C73.2615 170.137 73.243 169.799 73.29 169.467C73.337 169.135 73.4485 168.815 73.6182 168.527C73.7879 168.238 74.0125 167.986 74.279 167.784C74.5456 167.583 74.8489 167.437 75.1717 167.353C75.4944 167.27 75.8304 167.252 76.1602 167.3C76.49 167.347 76.8072 167.46 77.0938 167.631C77.3804 167.802 77.6307 168.028 77.8303 168.297L81.8992 173.759L92.3495 157.976C92.5342 157.697 92.7717 157.457 93.0484 157.27C93.3251 157.084 93.6355 156.954 93.9621 156.888C94.2886 156.822 94.6248 156.822 94.9515 156.887C95.2782 156.952 95.589 157.081 95.866 157.267C96.1431 157.453 96.3811 157.692 96.5664 157.971C96.7517 158.25 96.8807 158.562 96.946 158.891C97.0113 159.22 97.0117 159.558 96.9471 159.887C96.8824 160.216 96.7541 160.529 96.5694 160.808L84.1309 179.595C83.9059 179.935 83.6032 180.215 83.2484 180.413C82.8935 180.61 82.4967 180.72 82.0913 180.731C82.0678 180.731 82.0443 180.732 82.0207 180.732Z" fill="#FFB85A"/>
<path d="M28.8021 135.827C27.9892 135.491 27.2584 134.982 26.6602 134.334C26.062 133.687 25.6107 132.916 25.3374 132.075C25.0642 131.235 24.9756 130.344 25.0777 129.466C25.1798 128.587 25.4702 127.741 25.9288 126.987L8.40479 102.184L14.0266 95.6162L34.6262 125.229C35.8299 126.101 36.6742 127.387 36.9991 128.843C37.324 130.3 37.1069 131.826 36.389 133.133C35.6711 134.439 34.5023 135.435 33.104 135.931C31.7057 136.428 30.175 136.391 28.8021 135.827H28.8021Z" fill="#FFB6B6"/>
<path d="M29.2048 57.225C28.3182 56.6998 27.2748 56.5099 26.2617 56.6895C25.2486 56.8691 24.3323 57.4064 23.6772 58.2049L0 91.5476L21.9426 122.928L30.5289 113.642L17.1725 92.5082L34.9232 75.4907C36.3819 72.273 36.6047 68.6252 35.5486 65.2518C34.4925 61.8784 32.2324 59.0187 29.2048 57.225Z" fill="#FFB85A"/>
</svg>
