<svg width="103" height="103" viewBox="0 0 103 103" fill="none" xmlns="http://www.w3.org/2000/svg">
<circle cx="51.5" cy="51.5" r="51.5" fill="#EBF1F4"/>
<g filter="url(#filter0_d_435_806)">
<path d="M22.7936 20.4101L23.1686 20.4144L79.6699 21.0604C80.414 21.0689 81.1109 21.303 81.6097 21.6923C82.1064 22.0799 82.3525 22.5755 82.347 23.0596L81.6772 81.6378C81.6717 82.1219 81.4143 82.6118 80.9088 82.9879C80.4013 83.3657 79.6992 83.5837 78.9551 83.5752L22.0789 82.9249C21.3348 82.9164 20.6379 82.6823 20.1391 82.2931C19.6424 81.9055 19.3963 81.4098 19.4018 80.9258L20.0716 22.3475C20.0771 21.8635 20.3345 21.3736 20.8399 20.9974C21.3475 20.6197 22.0496 20.4016 22.7936 20.4101Z" fill="white" stroke="white" stroke-width="0.75"/>
</g>
<path d="M81.3464 21.6986L81.5922 21.4154L81.3464 21.6986C81.8014 22.0934 82.0385 22.61 82.0326 23.1297L81.65 56.5928L19.6881 55.8844L20.0707 22.4213C20.0767 21.9016 20.3256 21.3905 20.7894 21.0062C21.2552 20.6204 21.8949 20.3999 22.5696 20.4076L22.9446 20.4119L79.5804 21.0594C80.2551 21.0671 80.8896 21.3022 81.3464 21.6986Z" fill="#4F7D96" stroke="white" stroke-width="0.75"/>
<path d="M50.8189 52.9899C56.8613 53.0589 61.8347 46.5545 61.9272 38.4619C62.0197 30.3692 57.1964 23.7528 51.154 23.6837C45.1116 23.6146 40.1383 30.119 40.0457 38.2117C39.9532 46.3044 44.7765 52.9208 50.8189 52.9899Z" fill="#79A1B7"/>
<path d="M53.3533 46L50.7853 42.28L48.6253 46H44.1853L48.6013 39.16L44.0653 32.608H48.6733L51.2413 36.304L53.4013 32.608H57.8413L53.3533 39.352L57.9613 46H53.3533Z" fill="#C04757"/>
<defs>
<filter id="filter0_d_435_806" x="13.0267" y="16.0347" width="75.6954" height="75.916" filterUnits="userSpaceOnUse" color-interpolation-filters="sRGB">
<feFlood flood-opacity="0" result="BackgroundImageFix"/>
<feColorMatrix in="SourceAlpha" type="matrix" values="0 0 0 0 0 0 0 0 0 0 0 0 0 0 0 0 0 0 127 0" result="hardAlpha"/>
<feOffset dy="2"/>
<feGaussianBlur stdDeviation="3"/>
<feColorMatrix type="matrix" values="0 0 0 0 0 0 0 0 0 0.862745 0 0 0 0 0.501961 0 0 0 0.5 0"/>
<feBlend mode="normal" in2="BackgroundImageFix" result="effect1_dropShadow_435_806"/>
<feBlend mode="normal" in="SourceGraphic" in2="effect1_dropShadow_435_806" result="shape"/>
</filter>
</defs>
</svg>
