<svg width="113" height="103" viewBox="0 0 113 103" fill="none" xmlns="http://www.w3.org/2000/svg">
<circle cx="56.5" cy="51.5" r="51.5" fill="#EBF1F4"/>
<path d="M52.7392 18.3814C54.0132 14.8646 58.9868 14.8646 60.2608 18.3814L66.4334 35.4202C67.0069 37.0033 68.5104 38.0578 70.1942 38.0578L89.1613 38.0578C93.1406 38.0578 94.679 43.2365 91.3451 45.409L76.776 54.9029C75.2194 55.9172 74.5662 57.8698 75.199 59.6165L80.9353 75.4511C82.2431 79.0611 78.2075 82.261 74.9907 80.1648L58.6838 69.5386C57.3564 68.6736 55.6436 68.6736 54.3162 69.5386L38.0093 80.1648C34.7925 82.261 30.7569 79.0611 32.0647 75.4511L37.801 59.6165C38.4338 57.8698 37.7806 55.9172 36.224 54.9029L21.6549 45.409C18.321 43.2365 19.8594 38.0578 23.8387 38.0578L42.8058 38.0578C44.4896 38.0578 45.9931 37.0033 46.5666 35.4202L52.7392 18.3814Z" fill="#C4C4C4"/>
<ellipse cx="50.7343" cy="43.487" rx="2.03497" ry="1.90789" fill="white"/>
<ellipse cx="62.2657" cy="43.487" rx="2.03497" ry="1.90789" fill="white"/>
<path d="M62.2657 59.1317C62.2657 60.8177 59.8418 57.6054 56.6575 57.6054C53.4732 57.6054 50.7343 60.8177 50.7343 59.1317C50.7343 57.4458 53.3157 56.0791 56.5 56.0791C59.6843 56.0791 62.2657 57.4458 62.2657 59.1317Z" fill="white"/>
</svg>
