<svg width="113" height="103" viewBox="0 0 113 103" fill="none" xmlns="http://www.w3.org/2000/svg">
<circle cx="56.5" cy="51.5" r="51.5" fill="#EBF1F4"/>
<path d="M82.5437 46.5913C82.5251 46.5913 82.5069 46.5857 82.4917 46.5752L57.2617 29.26C57.185 29.2076 57.0937 29.1795 57.0003 29.1797C56.9069 29.1798 56.8157 29.2082 56.7391 29.2609L31.6909 46.575C31.6711 46.5887 31.6466 46.5941 31.6228 46.59C31.5989 46.5859 31.5777 46.5726 31.5638 46.5531C31.55 46.5335 31.5445 46.5094 31.5487 46.4859C31.5529 46.4624 31.5663 46.4415 31.5862 46.4278L56.6344 29.1136C56.7416 29.0399 56.8692 29.0002 57 29C57.1308 28.9998 57.2585 29.039 57.366 29.1125L82.5959 46.4276C82.6119 46.4386 82.6239 46.4543 82.6301 46.4724C82.6364 46.4905 82.6367 46.5101 82.6308 46.5284C82.625 46.5466 82.6134 46.5626 82.5978 46.5739C82.5821 46.5852 82.5632 46.5913 82.5437 46.5913L82.5437 46.5913Z" fill="#3F3D56"/>
<path d="M33.1224 47.2053L57.0252 29.748L81.1095 48.4474L58.2568 61.7977L45.8498 59.0108L33.1224 47.2053Z" fill="#E6E6E6"/>
<path d="M46.8971 70.0434H35.0885C35.016 70.0435 34.9441 70.0295 34.8771 70.0022C34.8101 69.9749 34.7492 69.9349 34.6979 69.8844C34.6466 69.8339 34.6059 69.7739 34.5781 69.7079C34.5504 69.6419 34.5361 69.5712 34.5361 69.4997C34.5361 69.4283 34.5504 69.3575 34.5781 69.2915C34.6059 69.2255 34.6466 69.1655 34.6979 69.115C34.7492 69.0646 34.8101 69.0245 34.8771 68.9972C34.9441 68.97 35.016 68.956 35.0885 68.9561H46.8971C46.9696 68.956 47.0414 68.97 47.1084 68.9972C47.1754 69.0245 47.2363 69.0646 47.2876 69.115C47.3389 69.1655 47.3796 69.2255 47.4074 69.2915C47.4352 69.3575 47.4495 69.4283 47.4495 69.4997C47.4495 69.5712 47.4352 69.6419 47.4074 69.7079C47.3796 69.7739 47.3389 69.8339 47.2876 69.8844C47.2363 69.9349 47.1754 69.9749 47.1084 70.0022C47.0414 70.0295 46.9696 70.0435 46.8971 70.0434Z" fill="#FE844B"/>
<path d="M39.3251 67.7065H35.0885C35.016 67.7066 34.9441 67.6926 34.8771 67.6653C34.8101 67.638 34.7492 67.598 34.6979 67.5475C34.6466 67.497 34.6059 67.437 34.5781 67.371C34.5504 67.305 34.5361 67.2343 34.5361 67.1628C34.5361 67.0913 34.5504 67.0206 34.5781 66.9546C34.6059 66.8886 34.6466 66.8286 34.6979 66.7781C34.7492 66.7276 34.8101 66.6876 34.8771 66.6603C34.9441 66.633 35.016 66.619 35.0885 66.6191H39.3251C39.3976 66.619 39.4695 66.633 39.5365 66.6603C39.6035 66.6876 39.6644 66.7276 39.7157 66.7781C39.767 66.8286 39.8077 66.8886 39.8355 66.9546C39.8632 67.0206 39.8775 67.0913 39.8775 67.1628C39.8775 67.2343 39.8632 67.305 39.8355 67.371C39.8077 67.437 39.767 67.497 39.7157 67.5475C39.6644 67.598 39.6035 67.638 39.5365 67.6653C39.4695 67.6926 39.3976 67.7066 39.3251 67.7065Z" fill="#FE844B"/>
<path d="M57.3613 56.9289C57.2715 56.929 57.1826 56.9119 57.0995 56.8784L42.3579 50.8507V31.9828C42.3581 31.816 42.4254 31.656 42.5452 31.538C42.6649 31.4201 42.8272 31.3537 42.9965 31.3535H71.2772C71.4465 31.3537 71.6088 31.4201 71.7285 31.538C71.8483 31.656 71.9156 31.816 71.9158 31.9828V50.8638L71.8881 50.8755L57.6309 56.8755C57.5456 56.9108 57.4539 56.929 57.3613 56.9289Z" fill="white"/>
<path d="M57.3613 56.9739C57.2656 56.974 57.1708 56.9557 57.0822 56.9201L42.3123 50.8807V31.9829C42.3125 31.8041 42.3847 31.6327 42.5129 31.5063C42.6412 31.3799 42.8151 31.3088 42.9965 31.3086H71.2772C71.4586 31.3088 71.6325 31.3799 71.7608 31.5063C71.8891 31.6327 71.9612 31.8041 71.9614 31.9829V50.8935L57.6489 56.9168C57.5578 56.9546 57.4601 56.974 57.3613 56.9739ZM42.4948 50.7606L57.1518 56.7538C57.2885 56.8085 57.4416 56.8076 57.5776 56.7513L71.779 50.7749V31.9829C71.7788 31.8518 71.7259 31.7261 71.6319 31.6334C71.5378 31.5407 71.4103 31.4886 71.2772 31.4884H42.9965C42.8635 31.4886 42.736 31.5407 42.6419 31.6334C42.5478 31.7261 42.4949 31.8518 42.4948 31.9829L42.4948 50.7606Z" fill="#3F3D56"/>
<path d="M82.3614 46.4111H82.3431L71.8702 50.8181L57.541 56.8477C57.485 56.8709 57.4249 56.883 57.3642 56.8833C57.3034 56.8837 57.2432 56.8722 57.187 56.8495L42.4035 50.8055L31.6733 46.4183L31.6569 46.4111H31.6386C31.4693 46.4113 31.307 46.4777 31.1872 46.5957C31.0675 46.7136 31.0002 46.8736 31 47.0404V74.3703C31.0002 74.5371 31.0675 74.6971 31.1872 74.8151C31.307 74.9331 31.4693 74.9994 31.6386 74.9996H82.3614C82.5307 74.9994 82.693 74.9331 82.8127 74.8151C82.9325 74.6971 82.9998 74.5371 83 74.3703V47.0404C82.9998 46.8736 82.9325 46.7136 82.8127 46.5957C82.693 46.4777 82.5307 46.4113 82.3614 46.4111ZM82.8175 74.3703C82.8175 74.4895 82.7694 74.6038 82.6839 74.6881C82.5984 74.7724 82.4824 74.8197 82.3614 74.8198H31.6386C31.5176 74.8197 31.4016 74.7724 31.3161 74.6881C31.2306 74.6038 31.1825 74.4895 31.1825 74.3703V47.0404C31.1826 46.9242 31.2284 46.8125 31.3102 46.7287C31.3919 46.645 31.5034 46.5956 31.6213 46.5909L42.4035 50.9997L57.1168 57.0158C57.2761 57.0797 57.4545 57.0787 57.6131 57.0131L71.8702 51.0132L82.3797 46.5909C82.4973 46.5959 82.6085 46.6455 82.69 46.7292C82.7716 46.8129 82.8173 46.9244 82.8175 47.0404V74.3703Z" fill="#3F3D56"/>
<path d="M57.2139 51.578C56.6697 51.579 56.1399 51.4055 55.7045 51.0839L55.6775 51.0639L49.993 46.7749C49.7297 46.5762 49.5088 46.3282 49.3427 46.0453C49.1767 45.7624 49.0688 45.45 49.0253 45.126C48.9818 44.802 49.0035 44.4727 49.0891 44.157C49.1747 43.8412 49.3226 43.5452 49.5243 43.2857C49.726 43.0263 49.9776 42.8086 50.2647 42.645C50.5518 42.4813 50.8688 42.3751 51.1976 42.3322C51.5263 42.2893 51.8605 42.3106 52.1809 42.395C52.5013 42.4794 52.8017 42.6251 53.065 42.8239L56.747 45.6061L65.4481 34.4236C65.6499 34.1643 65.9016 33.9466 66.1888 33.7831C66.4759 33.6196 66.793 33.5134 67.1218 33.4706C67.4506 33.4279 67.7847 33.4493 68.1051 33.5338C68.4254 33.6183 68.7258 33.7641 68.989 33.963L68.9349 34.0354L68.9904 33.9641C69.5213 34.3662 69.8687 34.9593 69.9563 35.6135C70.0439 36.2677 69.8646 36.9294 69.4578 37.4534L59.2232 50.6067C58.9865 50.9098 58.6821 51.1551 58.3336 51.3235C57.9852 51.492 57.602 51.579 57.2139 51.578Z" fill="#FFB85A"/>
</svg>
