<svg width="103" height="103" viewBox="0 0 103 103" fill="none" xmlns="http://www.w3.org/2000/svg">
<circle cx="51.5" cy="51.5" r="51.5" fill="#EBF1F4"/>
<path d="M76.5438 48.5913C76.5252 48.5913 76.507 48.5857 76.4917 48.5752L51.2618 31.26C51.185 31.2076 51.0938 31.1795 51.0004 31.1797C50.9069 31.1798 50.8158 31.2082 50.7392 31.2609L25.691 48.575C25.6712 48.5887 25.6467 48.5941 25.6228 48.59C25.599 48.5859 25.5778 48.5726 25.5639 48.5531C25.55 48.5335 25.5446 48.5094 25.5487 48.4859C25.5529 48.4624 25.5664 48.4415 25.5862 48.4278L50.6344 31.1136C50.7417 31.0399 50.8693 31.0002 51.0001 31C51.1309 30.9998 51.2586 31.039 51.3661 31.1125L76.596 48.4276C76.6119 48.4386 76.6239 48.4543 76.6302 48.4724C76.6365 48.4905 76.6367 48.5101 76.6309 48.5284C76.6251 48.5466 76.6135 48.5626 76.5978 48.5739C76.5822 48.5852 76.5632 48.5913 76.5438 48.5913L76.5438 48.5913Z" fill="#3F3D56"/>
<path d="M27.1223 49.2053L51.0252 31.748L75.1094 50.4474L52.2568 63.7977L39.8497 61.0108L27.1223 49.2053Z" fill="#E6E6E6"/>
<path d="M40.897 72.0434H29.0884C29.0159 72.0435 28.9441 72.0295 28.8771 72.0022C28.8101 71.9749 28.7492 71.9349 28.6978 71.8844C28.6465 71.8339 28.6058 71.7739 28.5781 71.7079C28.5503 71.6419 28.536 71.5712 28.536 71.4997C28.536 71.4283 28.5503 71.3575 28.5781 71.2915C28.6058 71.2255 28.6465 71.1655 28.6978 71.115C28.7492 71.0646 28.8101 71.0245 28.8771 70.9972C28.9441 70.97 29.0159 70.956 29.0884 70.9561H40.897C40.9695 70.956 41.0413 70.97 41.1083 70.9972C41.1754 71.0245 41.2363 71.0646 41.2876 71.115C41.3389 71.1655 41.3796 71.2255 41.4073 71.2915C41.4351 71.3575 41.4494 71.4283 41.4494 71.4997C41.4494 71.5712 41.4351 71.6419 41.4073 71.7079C41.3796 71.7739 41.3389 71.8339 41.2876 71.8844C41.2363 71.9349 41.1754 71.9749 41.1083 72.0022C41.0413 72.0295 40.9695 72.0435 40.897 72.0434Z" fill="#FE844B"/>
<path d="M33.3251 69.706H29.0884C29.0159 69.7061 28.9441 69.6921 28.8771 69.6648C28.8101 69.6375 28.7492 69.5975 28.6978 69.547C28.6465 69.4965 28.6058 69.4365 28.5781 69.3705C28.5503 69.3045 28.536 69.2338 28.536 69.1623C28.536 69.0909 28.5503 69.0201 28.5781 68.9541C28.6058 68.8881 28.6465 68.8281 28.6978 68.7776C28.7492 68.7271 28.8101 68.6871 28.8771 68.6598C28.9441 68.6326 29.0159 68.6186 29.0884 68.6187H33.3251C33.3976 68.6186 33.4694 68.6326 33.5364 68.6598C33.6034 68.6871 33.6643 68.7271 33.7156 68.7776C33.7669 68.8281 33.8076 68.8881 33.8354 68.9541C33.8632 69.0201 33.8775 69.0909 33.8775 69.1623C33.8775 69.2338 33.8632 69.3045 33.8354 69.3705C33.8076 69.4365 33.7669 69.4965 33.7156 69.547C33.6643 69.5975 33.6034 69.6375 33.5364 69.6648C33.4694 69.6921 33.3976 69.7061 33.3251 69.706Z" fill="#FE844B"/>
<path d="M51.3613 58.9285C51.2715 58.9285 51.1826 58.9114 51.0995 58.8779L36.3579 52.8502V33.9823C36.3581 33.8155 36.4254 33.6555 36.5452 33.5376C36.6649 33.4196 36.8272 33.3532 36.9965 33.353H65.2772C65.4465 33.3532 65.6088 33.4196 65.7285 33.5376C65.8483 33.6555 65.9156 33.8155 65.9158 33.9823V52.8634L65.8881 52.875L51.6309 58.875C51.5456 58.9103 51.4539 58.9285 51.3613 58.9285Z" fill="white"/>
<path d="M51.3614 58.9734C51.2656 58.9735 51.1708 58.9552 51.0822 58.9196L36.3124 52.8802V33.9824C36.3126 33.8036 36.3847 33.6322 36.513 33.5058C36.6413 33.3794 36.8152 33.3083 36.9966 33.3081H65.2773C65.4587 33.3083 65.6326 33.3794 65.7609 33.5058C65.8891 33.6322 65.9613 33.8036 65.9615 33.9824V52.8931L51.6489 58.9163C51.5579 58.9541 51.4601 58.9735 51.3614 58.9734ZM36.4948 52.7601L51.1518 58.7533C51.2885 58.808 51.4416 58.8071 51.5777 58.7508L65.779 52.7744V33.9824C65.7789 33.8513 65.726 33.7256 65.6319 33.6329C65.5379 33.5402 65.4103 33.4881 65.2773 33.4879H36.9966C36.8636 33.4881 36.736 33.5402 36.642 33.6329C36.5479 33.7256 36.495 33.8513 36.4948 33.9824L36.4948 52.7601Z" fill="#3F3D56"/>
<path d="M76.3614 48.4116H76.3431L65.8702 52.8186L51.541 58.8482C51.485 58.8714 51.4249 58.8835 51.3642 58.8838C51.3034 58.8841 51.2432 58.8726 51.187 58.85L36.4035 52.806L25.6733 48.4188L25.6569 48.4116H25.6386C25.4693 48.4118 25.307 48.4782 25.1872 48.5961C25.0675 48.7141 25.0002 48.8741 25 49.0409V76.3708C25.0002 76.5376 25.0675 76.6976 25.1872 76.8156C25.307 76.9335 25.4693 76.9999 25.6386 77.0001H76.3614C76.5307 76.9999 76.693 76.9335 76.8127 76.8156C76.9325 76.6976 76.9998 76.5376 77 76.3708V49.0409C76.9998 48.8741 76.9325 48.7141 76.8127 48.5961C76.693 48.4782 76.5307 48.4118 76.3614 48.4116ZM76.8175 76.3708C76.8175 76.49 76.7694 76.6043 76.6839 76.6886C76.5984 76.7729 76.4824 76.8202 76.3614 76.8203H25.6386C25.5176 76.8202 25.4016 76.7729 25.3161 76.6886C25.2306 76.6043 25.1825 76.49 25.1825 76.3708V49.0409C25.1826 48.9247 25.2284 48.813 25.3102 48.7292C25.3919 48.6455 25.5034 48.5961 25.6213 48.5914L36.4035 53.0002L51.1168 59.0163C51.2761 59.0802 51.4545 59.0792 51.6131 59.0136L65.8702 53.0136L76.3797 48.5914C76.4973 48.5964 76.6085 48.6459 76.69 48.7297C76.7716 48.8134 76.8173 48.9249 76.8175 49.0409V76.3708Z" fill="#3F3D56"/>
<path d="M53.8533 52L51.2853 48.28L49.1253 52H44.6853L49.1013 45.16L44.5653 38.608H49.1733L51.7413 42.304L53.9013 38.608H58.3413L53.8533 45.352L58.4613 52H53.8533Z" fill="#C04757"/>
<path d="M53.8533 52L51.2853 48.28L49.1253 52H44.6853L49.1013 45.16L44.5653 38.608H49.1733L51.7413 42.304L53.9013 38.608H58.3413L53.8533 45.352L58.4613 52H53.8533Z" fill="#FF4444"/>
</svg>
