<svg width="103" height="103" viewBox="0 0 103 103" fill="none" xmlns="http://www.w3.org/2000/svg">
<circle cx="51.5" cy="51.5" r="51.5" fill="#EBF1F4"/>
<path d="M84.4122 38.3275C84.3882 38.3276 84.3648 38.3201 84.3451 38.3062L51.8373 15.3448C51.7384 15.2752 51.6208 15.2381 51.5005 15.2383C51.3801 15.2385 51.2627 15.2761 51.164 15.3459L18.8903 38.3059C18.8648 38.3241 18.8332 38.3312 18.8025 38.3258C18.7718 38.3203 18.7445 38.3027 18.7266 38.2768C18.7087 38.2509 18.7016 38.2189 18.707 38.1877C18.7124 38.1566 18.7298 38.1289 18.7553 38.1107L51.029 15.1507C51.1672 15.0529 51.3316 15.0003 51.5001 15C51.6686 14.9997 51.8332 15.0518 51.9717 15.1491L84.4795 38.1105C84.5 38.125 84.5154 38.1458 84.5235 38.1698C84.5316 38.1938 84.5319 38.2198 84.5244 38.244C84.5169 38.2683 84.502 38.2894 84.4818 38.3044C84.4616 38.3195 84.4372 38.3275 84.4122 38.3275L84.4122 38.3275Z" fill="#3F3D56"/>
<path d="M20.7345 39.1419L51.5324 15.9922L82.564 40.7891L53.1193 58.4926L37.1333 54.797L20.7345 39.1419Z" fill="#E6E6E6"/>
<path d="M38.4828 69.4268H23.2679C23.1745 69.4269 23.0819 69.4083 22.9956 69.3721C22.9092 69.336 22.8308 69.2829 22.7647 69.2159C22.6986 69.149 22.6461 69.0694 22.6104 68.9819C22.5746 68.8944 22.5562 68.8006 22.5562 68.7058C22.5562 68.6111 22.5746 68.5172 22.6104 68.4297C22.6461 68.3422 22.6986 68.2627 22.7647 68.1957C22.8308 68.1287 22.9092 68.0756 22.9956 68.0395C23.0819 68.0033 23.1745 67.9847 23.2679 67.9849H38.4828C38.5762 67.9847 38.6688 68.0033 38.7551 68.0395C38.8415 68.0756 38.9199 68.1287 38.986 68.1957C39.0521 68.2627 39.1046 68.3422 39.1404 68.4297C39.1761 68.5172 39.1946 68.6111 39.1946 68.7058C39.1946 68.8006 39.1761 68.8944 39.1404 68.9819C39.1046 69.0694 39.0521 69.149 38.986 69.2159C38.9199 69.2829 38.8415 69.336 38.7551 69.3721C38.6688 69.4083 38.5762 69.4269 38.4828 69.4268V69.4268Z" fill="#FE844B"/>
<path d="M28.7267 66.3276H23.2679C23.1745 66.3277 23.0819 66.3092 22.9956 66.273C22.9092 66.2368 22.8308 66.1837 22.7647 66.1168C22.6986 66.0498 22.6461 65.9703 22.6104 65.8828C22.5746 65.7953 22.5562 65.7014 22.5562 65.6067C22.5562 65.5119 22.5746 65.4181 22.6104 65.3306C22.6461 65.243 22.6986 65.1635 22.7647 65.0966C22.8308 65.0296 22.9092 64.9765 22.9956 64.9404C23.0819 64.9042 23.1745 64.8856 23.2679 64.8857H28.7267C28.8201 64.8856 28.9126 64.9042 28.999 64.9404C29.0853 64.9765 29.1638 65.0296 29.2299 65.0966C29.296 65.1635 29.3484 65.243 29.3842 65.3306C29.42 65.4181 29.4384 65.5119 29.4384 65.6067C29.4384 65.7014 29.42 65.7953 29.3842 65.8828C29.3484 65.9703 29.296 66.0498 29.2299 66.1168C29.1638 66.1837 29.0853 66.2368 28.999 66.273C28.9126 66.3092 28.8201 66.3277 28.7267 66.3276Z" fill="#FE844B"/>
<path d="M51.9655 52.0357C51.8498 52.0358 51.7353 52.0131 51.6282 51.9687L32.6342 43.9754V18.9551C32.6345 18.7339 32.7212 18.5218 32.8755 18.3653C33.0297 18.2089 33.2389 18.1209 33.457 18.1206H69.8956C70.1138 18.1209 70.3229 18.2089 70.4771 18.3653C70.6314 18.5218 70.7182 18.7339 70.7184 18.9551V43.9929L70.6827 44.0084L52.3129 51.9648C52.2029 52.0117 52.0848 52.0358 51.9655 52.0357Z" fill="white"/>
<path d="M51.9654 52.0953C51.8421 52.0954 51.7199 52.0712 51.6058 52.0239L32.5754 44.0153V18.9552C32.5756 18.7181 32.6686 18.4908 32.8339 18.3232C32.9992 18.1556 33.2232 18.0613 33.457 18.061H69.8956C70.1293 18.0613 70.3534 18.1556 70.5186 18.3232C70.6839 18.4908 70.7769 18.7181 70.7771 18.9552V44.0323L52.3359 52.0196C52.2187 52.0697 52.0927 52.0954 51.9654 52.0953V52.0953ZM32.8105 43.856L51.6954 51.8035C51.8716 51.876 52.0688 51.8748 52.2441 51.8002L70.542 43.8749V18.9552C70.5418 18.7813 70.4737 18.6147 70.3525 18.4917C70.2313 18.3688 70.067 18.2997 69.8956 18.2995H33.457C33.2856 18.2997 33.1212 18.3688 33 18.4917C32.8789 18.6147 32.8107 18.7813 32.8105 18.9552L32.8105 43.856Z" fill="#3F3D56"/>
<path d="M84.1772 38.0894H84.1537L70.6596 43.9333L52.1971 51.9291C52.1249 51.9599 52.0475 51.976 51.9692 51.9764C51.891 51.9768 51.8134 51.9615 51.7409 51.9315L32.693 43.9166L18.8675 38.0989L18.8463 38.0894H18.8228C18.6047 38.0896 18.3955 38.1776 18.2413 38.334C18.087 38.4905 18.0002 38.7026 18 38.9239V75.1655C18.0002 75.3867 18.087 75.5989 18.2413 75.7553C18.3955 75.9117 18.6047 75.9998 18.8228 76H84.1772C84.3953 75.9998 84.6045 75.9117 84.7587 75.7553C84.913 75.5989 84.9998 75.3867 85 75.1655V38.9239C84.9998 38.7026 84.913 38.4905 84.7587 38.334C84.6045 38.1776 84.3953 38.0896 84.1772 38.0894V38.0894ZM84.7649 75.1655C84.7649 75.3236 84.7029 75.4751 84.5927 75.5869C84.4825 75.6987 84.333 75.7615 84.1772 75.7616H18.8228C18.667 75.7615 18.5175 75.6987 18.4073 75.5869C18.2971 75.4751 18.2352 75.3236 18.2351 75.1655V38.9239C18.2353 38.7697 18.2943 38.6216 18.3996 38.5105C18.505 38.3994 18.6486 38.334 18.8005 38.3278L32.693 44.1741L51.6505 52.1521C51.8557 52.2367 52.0856 52.2355 52.2899 52.1485L70.6596 44.192L84.2007 38.3278C84.3523 38.3344 84.4956 38.4001 84.6006 38.5111C84.7057 38.6221 84.7646 38.77 84.7649 38.9239V75.1655Z" fill="#3F3D56"/>
<path d="M48.5203 25.0876C49.6803 23.1161 52.5314 23.1161 53.6915 25.0876L61.8454 38.9452C63.0222 40.9451 61.5803 43.4666 59.2598 43.4666H42.9519C40.6315 43.4666 39.1895 40.9451 40.3663 38.9452L48.5203 25.0876Z" fill="#FFB85A"/>
<path d="M52.0589 26.1L51.7989 35.8H49.8989L49.6389 26.1H52.0589ZM50.9189 40.14C50.5055 40.14 50.1589 40 49.8789 39.72C49.5989 39.44 49.4589 39.0933 49.4589 38.68C49.4589 38.2667 49.5989 37.92 49.8789 37.64C50.1589 37.36 50.5055 37.22 50.9189 37.22C51.3189 37.22 51.6589 37.36 51.9389 37.64C52.2189 37.92 52.3589 38.2667 52.3589 38.68C52.3589 39.0933 52.2189 39.44 51.9389 39.72C51.6589 40 51.3189 40.14 50.9189 40.14Z" fill="#353535"/>
</svg>
