<svg width="113" height="103" viewBox="0 0 113 103" fill="none" xmlns="http://www.w3.org/2000/svg">
<circle cx="56.5" cy="51.5" r="51.5" fill="#EBF1F4"/>
<path d="M50.7895 76C49.5441 76.0027 48.3317 75.534 47.3351 74.6645L47.2734 74.6105L34.2644 63.0179C33.662 62.4807 33.1563 61.8105 32.7764 61.0458C32.3964 60.2811 32.1496 59.4368 32.05 58.561C31.9504 57.6853 32 56.7953 32.1959 55.9418C32.3918 55.0884 32.7302 54.2882 33.1918 53.587C33.6535 52.8858 34.2292 52.2973 34.8862 51.8551C35.5433 51.4128 36.2687 51.1255 37.0211 51.0096C37.7736 50.8937 38.5382 50.9514 39.2715 51.1794C40.0048 51.4075 40.6922 51.8014 41.2947 52.3386L49.7209 59.8587L69.6334 29.6337C70.0952 28.9327 70.6711 28.3444 71.3283 27.9024C71.9855 27.4604 72.711 27.1735 73.4634 27.0579C74.2159 26.9422 74.9806 27.0003 75.7137 27.2286C76.4469 27.457 77.1343 27.8512 77.7366 28.3887L77.6128 28.5844L77.7398 28.3916C78.9547 29.4784 79.7497 31.0817 79.9502 32.8498C80.1507 34.6179 79.7405 36.4064 78.8095 37.8229L55.3876 73.3748C54.8459 74.194 54.1493 74.857 53.3519 75.3122C52.5545 75.7675 51.6777 76.0028 50.7895 76Z" fill="#FFB85A"/>
</svg>
