<svg width="103" height="103" viewBox="0 0 103 103" fill="none" xmlns="http://www.w3.org/2000/svg">
<circle cx="51.5" cy="51.5" r="51.5" fill="#EBF1F4"/>
<path d="M76.5438 48.5913C76.5252 48.5913 76.507 48.5857 76.4917 48.5752L51.2618 31.26C51.185 31.2076 51.0938 31.1795 51.0004 31.1797C50.9069 31.1798 50.8158 31.2082 50.7392 31.2609L25.691 48.575C25.6712 48.5887 25.6467 48.5941 25.6228 48.59C25.599 48.5859 25.5778 48.5726 25.5639 48.5531C25.55 48.5335 25.5446 48.5094 25.5487 48.4859C25.5529 48.4624 25.5664 48.4415 25.5862 48.4278L50.6344 31.1136C50.7417 31.0399 50.8693 31.0002 51.0001 31C51.1309 30.9998 51.2586 31.039 51.3661 31.1125L76.596 48.4276C76.6119 48.4386 76.6239 48.4543 76.6302 48.4724C76.6365 48.4905 76.6367 48.5101 76.6309 48.5284C76.6251 48.5466 76.6135 48.5626 76.5978 48.5739C76.5822 48.5852 76.5632 48.5913 76.5438 48.5913L76.5438 48.5913Z" fill="#3F3D56"/>
<path d="M27.1223 49.2053L51.0252 31.748L75.1094 50.4474L52.2568 63.7977L39.8497 61.0108L27.1223 49.2053Z" fill="#E6E6E6"/>
<path d="M40.897 72.0434H29.0884C29.0159 72.0435 28.9441 72.0295 28.8771 72.0022C28.8101 71.9749 28.7492 71.9349 28.6978 71.8844C28.6465 71.8339 28.6058 71.7739 28.5781 71.7079C28.5503 71.6419 28.536 71.5712 28.536 71.4997C28.536 71.4283 28.5503 71.3575 28.5781 71.2915C28.6058 71.2255 28.6465 71.1655 28.6978 71.115C28.7492 71.0646 28.8101 71.0245 28.8771 70.9972C28.9441 70.97 29.0159 70.956 29.0884 70.9561H40.897C40.9695 70.956 41.0413 70.97 41.1083 70.9972C41.1754 71.0245 41.2363 71.0646 41.2876 71.115C41.3389 71.1655 41.3796 71.2255 41.4073 71.2915C41.4351 71.3575 41.4494 71.4283 41.4494 71.4997C41.4494 71.5712 41.4351 71.6419 41.4073 71.7079C41.3796 71.7739 41.3389 71.8339 41.2876 71.8844C41.2363 71.9349 41.1754 71.9749 41.1083 72.0022C41.0413 72.0295 40.9695 72.0435 40.897 72.0434Z" fill="#FE844B"/>
<path d="M33.3251 69.7065H29.0884C29.0159 69.7066 28.9441 69.6926 28.8771 69.6653C28.8101 69.638 28.7492 69.598 28.6978 69.5475C28.6465 69.497 28.6058 69.437 28.5781 69.371C28.5503 69.305 28.536 69.2343 28.536 69.1628C28.536 69.0913 28.5503 69.0206 28.5781 68.9546C28.6058 68.8886 28.6465 68.8286 28.6978 68.7781C28.7492 68.7276 28.8101 68.6876 28.8771 68.6603C28.9441 68.633 29.0159 68.619 29.0884 68.6191H33.3251C33.3976 68.619 33.4694 68.633 33.5364 68.6603C33.6034 68.6876 33.6643 68.7276 33.7156 68.7781C33.7669 68.8286 33.8076 68.8886 33.8354 68.9546C33.8632 69.0206 33.8775 69.0913 33.8775 69.1628C33.8775 69.2343 33.8632 69.305 33.8354 69.371C33.8076 69.437 33.7669 69.497 33.7156 69.5475C33.6643 69.598 33.6034 69.638 33.5364 69.6653C33.4694 69.6926 33.3976 69.7066 33.3251 69.7065Z" fill="#FE844B"/>
<path d="M51.3613 58.9289C51.2715 58.929 51.1826 58.9119 51.0995 58.8784L36.3579 52.8507V33.9828C36.3581 33.816 36.4254 33.656 36.5452 33.538C36.6649 33.4201 36.8272 33.3537 36.9965 33.3535H65.2772C65.4465 33.3537 65.6088 33.4201 65.7285 33.538C65.8483 33.656 65.9156 33.816 65.9158 33.9828V52.8638L65.8881 52.8755L51.6309 58.8755C51.5456 58.9108 51.4539 58.929 51.3613 58.9289Z" fill="white"/>
<path d="M51.3614 58.9739C51.2656 58.974 51.1708 58.9557 51.0822 58.9201L36.3124 52.8807V33.9829C36.3126 33.8041 36.3847 33.6327 36.513 33.5063C36.6413 33.3799 36.8152 33.3088 36.9966 33.3086H65.2773C65.4587 33.3088 65.6326 33.3799 65.7609 33.5063C65.8891 33.6327 65.9613 33.8041 65.9615 33.9829V52.8935L51.6489 58.9168C51.5579 58.9546 51.4601 58.974 51.3614 58.9739ZM36.4948 52.7606L51.1518 58.7538C51.2885 58.8085 51.4416 58.8076 51.5777 58.7513L65.779 52.7749V33.9829C65.7789 33.8518 65.726 33.7261 65.6319 33.6334C65.5379 33.5407 65.4103 33.4886 65.2773 33.4884H36.9966C36.8636 33.4886 36.736 33.5407 36.642 33.6334C36.5479 33.7261 36.495 33.8518 36.4948 33.9829L36.4948 52.7606Z" fill="#3F3D56"/>
<path d="M76.3614 48.4111H76.3431L65.8702 52.8181L51.541 58.8477C51.485 58.8709 51.4249 58.883 51.3642 58.8833C51.3034 58.8837 51.2432 58.8722 51.187 58.8495L36.4035 52.8055L25.6733 48.4183L25.6569 48.4111H25.6386C25.4693 48.4113 25.307 48.4777 25.1872 48.5957C25.0675 48.7136 25.0002 48.8736 25 49.0404V76.3703C25.0002 76.5371 25.0675 76.6971 25.1872 76.8151C25.307 76.9331 25.4693 76.9994 25.6386 76.9996H76.3614C76.5307 76.9994 76.693 76.9331 76.8127 76.8151C76.9325 76.6971 76.9998 76.5371 77 76.3703V49.0404C76.9998 48.8736 76.9325 48.7136 76.8127 48.5957C76.693 48.4777 76.5307 48.4113 76.3614 48.4111ZM76.8175 76.3703C76.8175 76.4895 76.7694 76.6038 76.6839 76.6881C76.5984 76.7724 76.4824 76.8197 76.3614 76.8198H25.6386C25.5176 76.8197 25.4016 76.7724 25.3161 76.6881C25.2306 76.6038 25.1825 76.4895 25.1825 76.3703V49.0404C25.1826 48.9242 25.2284 48.8125 25.3102 48.7287C25.3919 48.645 25.5034 48.5956 25.6213 48.5909L36.4035 52.9997L51.1168 59.0158C51.2761 59.0797 51.4545 59.0787 51.6131 59.0131L65.8702 53.0132L76.3797 48.5909C76.4973 48.5959 76.6085 48.6455 76.69 48.7292C76.7716 48.8129 76.8173 48.9244 76.8175 49.0404V76.3703Z" fill="#3F3D56"/>
<path d="M53.8533 52L51.2853 48.28L49.1253 52H44.6853L49.1013 45.16L44.5653 38.608H49.1733L51.7413 42.304L53.9013 38.608H58.3413L53.8533 45.352L58.4613 52H53.8533Z" fill="#C04757"/>
</svg>
