<svg width="103" height="103" viewBox="0 0 103 103" fill="none" xmlns="http://www.w3.org/2000/svg">
<circle cx="51.5" cy="51.5" r="51.5" fill="#EBF1F4"/>
<g filter="url(#filter0_d_435_712)">
<path d="M22.7936 20.4101L23.1686 20.4144L79.6699 21.0604C80.414 21.0689 81.1109 21.303 81.6097 21.6923C82.1064 22.0799 82.3525 22.5755 82.347 23.0596L81.6772 81.6378C81.6717 82.1219 81.4143 82.6118 80.9088 82.9879C80.4013 83.3657 79.6992 83.5837 78.9551 83.5752L22.0789 82.9249C21.3348 82.9164 20.6379 82.6823 20.1391 82.2931C19.6424 81.9055 19.3963 81.4098 19.4018 80.9258L20.0716 22.3475C20.0771 21.8635 20.3345 21.3736 20.8399 20.9974C21.3475 20.6197 22.0496 20.4016 22.7936 20.4101Z" fill="white" stroke="white" stroke-width="0.75"/>
</g>
<path d="M81.3464 21.6986L81.5922 21.4154L81.3464 21.6986C81.8014 22.0934 82.0385 22.61 82.0326 23.1297L81.65 56.5928L19.6881 55.8844L20.0707 22.4213C20.0767 21.9016 20.3256 21.3905 20.7894 21.0062C21.2552 20.6204 21.8949 20.3999 22.5696 20.4076L22.9446 20.4119L79.5804 21.0594C80.2551 21.0671 80.8896 21.3022 81.3464 21.6986Z" fill="#4F7D96" stroke="white" stroke-width="0.75"/>
<path d="M50.8189 52.9899C56.8613 53.0589 61.8347 46.5545 61.9272 38.4619C62.0197 30.3692 57.1964 23.7528 51.154 23.6837C45.1116 23.6146 40.1383 30.119 40.0458 38.2117C39.9532 46.3044 44.7766 52.9208 50.8189 52.9899Z" fill="#79A1B7"/>
<path d="M49.6979 47.0078C49.3046 47.0087 48.9217 46.8454 48.607 46.5426L48.5875 46.5238L44.4789 42.4868C44.2886 42.2997 44.1289 42.0663 44.0088 41.8C43.8888 41.5338 43.8108 41.2398 43.7793 40.9348C43.7478 40.6299 43.7634 40.32 43.8252 40.0229C43.887 39.7257 43.9939 39.4472 44.1396 39.203C44.2853 38.9589 44.4671 38.754 44.6745 38.6001C44.882 38.4461 45.111 38.3462 45.3486 38.3058C45.5862 38.2655 45.8277 38.2856 46.0592 38.3651C46.2908 38.4445 46.5079 38.5817 46.6982 38.7688L49.3595 41.3876L55.6455 30.8649C55.7913 30.6208 55.9731 30.416 56.1806 30.2621C56.3881 30.1083 56.6172 30.0084 56.8548 29.9682C57.0924 29.928 57.3338 29.9482 57.5654 30.0278C57.7969 30.1073 58.014 30.2446 58.2042 30.4318L58.1651 30.4999L58.2052 30.4328C58.5889 30.8113 58.84 31.3696 58.9035 31.9852C58.9669 32.6009 58.8375 33.2236 58.5436 33.7167L51.1497 46.094C50.9787 46.3792 50.7588 46.61 50.507 46.7685C50.2552 46.927 49.9783 47.0089 49.6979 47.0078Z" fill="#FFB85A"/>
<defs>
<filter id="filter0_d_435_712" x="13.0267" y="16.0347" width="75.6954" height="75.916" filterUnits="userSpaceOnUse" color-interpolation-filters="sRGB">
<feFlood flood-opacity="0" result="BackgroundImageFix"/>
<feColorMatrix in="SourceAlpha" type="matrix" values="0 0 0 0 0 0 0 0 0 0 0 0 0 0 0 0 0 0 127 0" result="hardAlpha"/>
<feOffset dy="2"/>
<feGaussianBlur stdDeviation="3"/>
<feColorMatrix type="matrix" values="0 0 0 0 0 0 0 0 0 0.862745 0 0 0 0 0.501961 0 0 0 0.5 0"/>
<feBlend mode="normal" in2="BackgroundImageFix" result="effect1_dropShadow_435_712"/>
<feBlend mode="normal" in="SourceGraphic" in2="effect1_dropShadow_435_712" result="shape"/>
</filter>
</defs>
</svg>
