<svg width="255" height="171" viewBox="0 0 255 171" fill="none" xmlns="http://www.w3.org/2000/svg">
<g clip-path="url(#clip0_1_219)">
<path d="M91.4686 98.5815C100.207 83.1603 116.877 71.3194 134.523 72.4601C121.507 86.6594 113.917 105.02 113.096 124.292C112.806 131.726 113.255 140.025 108.335 145.591C105.274 149.055 100.594 150.732 95.993 151.084C91.3918 151.436 86.7916 150.602 82.2519 149.772L81.1506 150.111C80.7314 132.377 82.7297 114.003 91.4686 98.5815Z" fill="#F0F0F0"/>
<path d="M134.55 72.8314C121.5 79.1331 110.374 89.6576 103.543 102.493C102.067 105.268 100.809 108.212 100.261 111.325C99.7122 114.439 100.095 117.403 101.156 120.361C102.125 123.065 103.429 125.718 103.726 128.611C104.039 131.661 102.921 134.512 100.907 136.775C98.4437 139.544 95.1354 141.26 91.8419 142.825C88.1852 144.563 84.3595 146.31 81.7695 149.553C81.4557 149.946 80.8662 149.434 81.1795 149.042C85.6857 143.399 93.3991 142.339 98.748 137.793C101.244 135.672 103.118 132.784 102.999 129.399C102.896 126.44 101.554 123.702 100.549 120.973C99.4936 118.107 98.9674 115.226 99.3458 112.17C99.733 109.045 100.878 106.046 102.278 103.245C105.434 96.9286 109.753 91.1298 114.701 86.1171C120.388 80.3552 127.016 75.6116 134.297 72.0916C134.748 71.8739 134.997 72.6151 134.55 72.8314Z" fill="white"/>
<path d="M105.544 98.2033C103.544 96.736 102.128 94.6031 101.551 92.1855C100.973 89.7679 101.271 87.2231 102.391 85.0056C102.619 84.5577 103.324 84.8923 103.095 85.3409C102.049 87.4039 101.771 89.7744 102.314 92.0246C102.856 94.2747 104.182 96.2562 106.053 97.6115C106.459 97.9065 105.948 98.4967 105.544 98.2033Z" fill="white"/>
<path d="M100.484 119.055C105.497 118.32 110.049 115.717 113.234 111.764C113.549 111.373 114.139 111.884 113.824 112.275C110.502 116.382 105.759 119.081 100.541 119.834C100.044 119.906 99.9895 119.126 100.484 119.055V119.055Z" fill="white"/>
<path d="M120.773 81.3172C121.429 82.0468 122.256 82.6014 123.178 82.9314C124.101 83.2613 125.091 83.3562 126.059 83.2076C126.555 83.1299 126.609 83.9101 126.116 83.9873C125.046 84.1465 123.953 84.0404 122.932 83.6781C121.912 83.3158 120.996 82.7084 120.264 81.909C120.189 81.8395 120.143 81.7438 120.135 81.6414C120.128 81.539 120.159 81.4375 120.224 81.3577C120.291 81.2797 120.387 81.2317 120.49 81.2241C120.593 81.2165 120.695 81.25 120.773 81.3172Z" fill="white"/>
<path d="M169.634 121.108C169.325 121.166 169.017 121.223 168.706 121.286C164.562 122.079 160.49 123.209 156.528 124.663C156.22 124.771 155.91 124.884 155.605 125.001C146.099 128.607 137.343 133.952 129.782 140.765C126.776 143.479 123.98 146.418 121.418 149.557C117.881 153.893 114.389 158.876 109.767 161.703C109.288 162.004 108.791 162.274 108.278 162.513L81.6485 151.432C81.6006 151.377 81.5498 151.327 81.5016 151.271L80.4182 150.877C80.5391 150.706 80.6681 150.531 80.7889 150.36C80.8586 150.261 80.9342 150.163 81.0039 150.064C81.0522 149.998 81.1009 149.933 81.1408 149.871C81.1568 149.849 81.1731 149.827 81.1866 149.811C81.2265 149.749 81.2701 149.696 81.3074 149.64C82.0258 148.66 82.7523 147.684 83.4869 146.711C83.4894 146.705 83.4895 146.705 83.4979 146.701C89.1142 139.302 95.3956 132.307 102.536 126.492C102.75 126.317 102.968 126.136 103.195 125.966C106.428 123.363 109.867 121.028 113.479 118.987C115.46 117.876 117.497 116.866 119.58 115.961C124.967 113.633 130.685 112.17 136.526 111.625C148.169 110.541 160.027 113.204 168.957 120.541C169.185 120.729 169.408 120.914 169.634 121.108Z" fill="#F0F0F0"/>
<path d="M169.434 121.422C155.233 118.573 140.032 120.256 126.875 126.379C124.03 127.703 121.26 129.294 118.954 131.448C116.646 133.603 115.173 136.201 114.245 139.203C113.396 141.947 112.844 144.853 111.345 147.343C109.765 149.967 107.161 151.568 104.195 152.159C100.566 152.882 96.8947 152.254 93.3257 151.514C89.3631 150.693 85.2601 149.777 81.2455 150.803C80.7591 150.927 80.5954 150.163 81.0811 150.039C88.0657 148.255 94.861 152.066 101.86 151.668C105.126 151.481 108.355 150.307 110.292 147.533C111.986 145.108 112.557 142.112 113.393 139.326C114.27 136.4 115.579 133.781 117.715 131.57C119.9 129.309 122.615 127.606 125.413 126.215C131.724 123.078 138.653 121.057 145.612 120.043C153.611 118.877 161.75 119.092 169.676 120.679C170.167 120.778 169.921 121.52 169.434 121.422V121.422Z" fill="white"/>
<path d="M131.047 124.162C130.33 121.782 130.48 119.224 131.47 116.945C132.46 114.666 134.225 112.814 136.451 111.72C136.902 111.5 137.263 112.193 136.812 112.413C134.738 113.428 133.093 115.153 132.176 117.278C131.259 119.402 131.128 121.785 131.809 123.997C131.956 124.478 131.193 124.64 131.047 124.162Z" fill="white"/>
<path d="M114.492 137.755C118.936 140.196 124.133 140.867 129.048 139.634C129.535 139.512 129.698 140.276 129.212 140.398C124.095 141.671 118.688 140.962 114.07 138.412C113.63 138.168 114.055 137.513 114.492 137.755Z" fill="white"/>
<path d="M153.341 119.877C153.427 120.856 153.754 121.798 154.293 122.619C154.831 123.44 155.565 124.113 156.427 124.579C156.87 124.817 156.445 125.472 156.005 125.236C155.054 124.717 154.245 123.972 153.648 123.067C153.051 122.161 152.684 121.123 152.579 120.042C152.561 119.941 152.582 119.837 152.637 119.751C152.693 119.665 152.779 119.603 152.878 119.578C152.979 119.556 153.084 119.576 153.171 119.632C153.258 119.688 153.319 119.776 153.341 119.877Z" fill="white"/>
<path d="M118.906 139.389C115.177 121.3 110.515 115.269 110.515 115.269L108.734 113.883L106.592 112.214L106.602 112L106.095 111.827L105.975 111.734L105.78 111.583L105.748 111.617L105.682 111.686L95.9904 108.381L83.6951 104.192L78.0016 96.7679C77.0744 95.5588 75.8806 94.5816 74.5138 93.9128C73.1471 93.2441 71.6445 92.9019 70.1239 92.9132L51.9407 93.0482C49.4822 93.0665 47.1193 94.0066 45.3167 95.6839L33.3653 106.805L14.7425 115.727L14.7111 115.695L14.5155 115.836L11.6382 117.216L11.7569 117.836L9.97598 119.125C9.97598 119.125 5.3142 124.737 1.58476 141.569C0.636033 145.851 0.169035 155.039 0.000473693 166.36C-0.00799313 166.932 0.0971185 167.501 0.309694 168.033C0.52227 168.564 0.83807 169.048 1.23873 169.456C1.63939 169.864 2.11692 170.188 2.64356 170.41C3.17019 170.631 3.73541 170.745 4.30637 170.745H103.774V170.745H116.189C116.759 170.745 117.324 170.631 117.851 170.41C118.377 170.189 118.854 169.865 119.255 169.457C119.655 169.05 119.971 168.567 120.184 168.036C120.397 167.505 120.503 166.936 120.495 166.364C120.33 154.045 119.863 144.033 118.906 139.389Z" fill="#FFB85A"/>
<path d="M131.668 16.5203C127.798 16.5203 124.087 18.0625 121.35 20.8075C118.614 23.5526 117.077 27.2757 117.077 31.1577C117.077 35.0398 118.614 38.7629 121.35 41.508C124.087 44.253 127.798 45.7952 131.668 45.7952H240.409C244.279 45.7952 247.99 44.253 250.726 41.508C253.463 38.7629 255 35.0398 255 31.1577C255 27.2757 253.463 23.5526 250.726 20.8075C247.99 18.0625 244.279 16.5203 240.409 16.5203H131.668Z" fill="#E5E5E5"/>
<path d="M131.668 19.4827C128.581 19.4827 125.621 20.7127 123.439 22.9022C121.256 25.0917 120.03 28.0613 120.03 31.1578C120.03 34.2542 121.256 37.2238 123.439 39.4133C125.621 41.6028 128.581 42.8328 131.668 42.8328H240.409C243.495 42.8328 246.456 41.6028 248.638 39.4133C250.821 37.2238 252.047 34.2542 252.047 31.1578C252.047 28.0613 250.821 25.0917 248.638 22.9022C246.456 20.7127 243.495 19.4827 240.409 19.4827H131.668Z" fill="white"/>
<path d="M63.8878 86.0606C77.0442 86.0606 87.7095 75.3617 87.7095 62.1638C87.7095 48.9659 77.0442 38.267 63.8878 38.267C50.7315 38.267 40.0662 48.9659 40.0662 62.1638C40.0662 75.3617 50.7315 86.0606 63.8878 86.0606Z" fill="#9E616A"/>
<path d="M57.7937 84.8905C57.6919 84.6657 57.5905 84.4402 57.4893 84.2139C57.5283 84.2151 57.5669 84.2207 57.6059 84.2218L57.7937 84.8905Z" fill="#2F2E41"/>
<path d="M39.4037 39.3536C40.6085 38.3895 42.0167 37.5024 43.5571 37.5522C45.0975 37.602 46.6596 38.9977 46.3405 40.5103C49.1699 35.4847 53.6735 31.6195 59.0607 29.593C64.448 27.5666 70.3746 27.5084 75.8004 29.4287C79.6289 30.7837 83.3834 33.4945 84.2629 37.4705C84.4887 38.4911 84.5371 39.6102 85.1724 40.439C85.9734 41.484 87.5058 41.7204 88.7677 41.3528C88.7803 41.3491 88.7929 41.3454 88.8055 41.3416C89.0187 41.2686 89.2488 41.2614 89.4661 41.321C89.6834 41.3806 89.8778 41.5042 90.0243 41.6759C90.1708 41.8476 90.2626 42.0594 90.2877 42.2839C90.3129 42.5085 90.2703 42.7355 90.1655 42.9355L89.0822 44.9622C90.4478 45.2675 91.8667 45.2372 93.2181 44.8739C93.4425 44.8149 93.6798 44.8269 93.8971 44.9085C94.1145 44.99 94.3014 45.137 94.4323 45.3293C94.5631 45.5216 94.6314 45.7498 94.6278 45.9826C94.6242 46.2154 94.5489 46.4413 94.4122 46.6295C90.8402 51.5491 84.8726 54.726 78.7827 54.6886C74.4545 54.6622 70.0816 53.1657 65.8692 54.1642C64.2396 54.5505 62.7169 55.2978 61.4127 56.3515C60.1086 57.4051 59.0562 58.7383 58.3326 60.2531C57.6091 61.768 57.2329 63.4261 57.2315 65.1059C57.2301 66.7857 57.6036 68.4445 58.3246 69.9605C57.0306 68.5406 54.529 68.8768 53.2052 70.269C51.8816 71.6612 51.5389 73.7391 51.6723 75.6583C51.8762 78.5938 53.0227 81.3598 54.2314 84.0519C44.0979 83.7319 34.5133 76.6009 31.2871 66.9562C28.0474 57.2711 31.4427 45.7244 39.4037 39.3536Z" fill="#2F2E41"/>
<path opacity="0.2" d="M23.4467 133.928L30.1281 170.395L34.1371 170.745L23.4467 133.928Z" fill="black"/>
<path opacity="0.2" d="M97.0441 131.177L90.3627 170.368L86.3536 170.745L97.0441 131.177Z" fill="black"/>
<path d="M45.1024 27.0807C43.8213 27.6173 42.4846 27.0292 41.924 25.6825C41.3548 24.3151 41.8864 22.927 43.188 22.3818C44.4897 21.8365 45.8027 22.426 46.381 23.8155C46.9507 25.1841 46.4249 26.5268 45.1024 27.0807ZM42.6484 19.6903L41.6298 20.117C41.3753 20.2223 41.0907 20.228 40.8323 20.1329C40.5739 20.0378 40.3604 19.8489 40.2342 19.6035L40.1838 19.5046C39.0878 17.5218 38.9623 15.1119 39.8128 12.3458C40.6007 9.86439 40.9279 8.11924 40.2698 6.53823C39.5089 4.71028 37.8841 4.13767 35.8122 4.96716C35.0086 5.30377 34.7529 5.29841 34.1205 5.92773C33.9829 6.06629 33.8189 6.17564 33.6383 6.24926C33.4577 6.32288 33.2642 6.35926 33.0693 6.35624C32.8809 6.35401 32.6948 6.31374 32.5222 6.23783C32.3497 6.16193 32.1941 6.05193 32.0648 5.9144C31.8157 5.64938 31.6762 5.2994 31.6743 4.93516C31.6725 4.57092 31.8085 4.21955 32.0549 3.95202C33.1179 2.8358 34.3999 1.95273 35.8202 1.35854C40.2719 -0.50622 42.513 2.24683 43.5385 4.71055C44.5416 7.12034 43.9773 9.35623 43.0707 12.2519C42.3109 14.6581 42.3552 16.441 43.2182 18.2138C43.2806 18.3478 43.3152 18.4931 43.3202 18.6409C43.3251 18.7887 43.3002 18.936 43.247 19.0739C43.1938 19.2118 43.1133 19.3375 43.0104 19.4434C42.9076 19.5493 42.7844 19.6333 42.6484 19.6903L42.6484 19.6903Z" fill="#FFB85A"/>
<path d="M155.687 38.1388H134.052C133.983 38.1393 133.915 38.1261 133.852 38.1C133.788 38.074 133.73 38.0355 133.681 37.9869C133.633 37.9384 133.594 37.8806 133.567 37.8169C133.541 37.7533 133.527 37.685 133.527 37.616C133.527 37.5471 133.541 37.4788 133.567 37.4152C133.594 37.3515 133.633 37.2937 133.681 37.2451C133.73 37.1965 133.788 37.1581 133.852 37.132C133.915 37.106 133.983 37.0928 134.052 37.0933H155.687C155.825 37.0942 155.957 37.1497 156.054 37.2476C156.151 37.3456 156.205 37.478 156.205 37.616C156.205 37.7541 156.151 37.8865 156.054 37.9844C155.957 38.0824 155.825 38.1379 155.687 38.1388Z" fill="#FFB85A"/>
<path d="M183.133 38.3131H161.498C161.429 38.3135 161.361 38.3004 161.297 38.2743C161.234 38.2482 161.176 38.2098 161.127 38.1612C161.078 38.1126 161.04 38.0548 161.013 37.9912C160.987 37.9275 160.973 37.8592 160.973 37.7903C160.973 37.7213 160.987 37.6531 161.013 37.5894C161.04 37.5258 161.078 37.468 161.127 37.4194C161.176 37.3708 161.234 37.3324 161.297 37.3063C161.361 37.2802 161.429 37.2671 161.498 37.2675H183.133C183.202 37.2671 183.27 37.2802 183.334 37.3063C183.397 37.3324 183.455 37.3708 183.504 37.4194C183.553 37.468 183.591 37.5258 183.618 37.5894C183.644 37.6531 183.658 37.7213 183.658 37.7903C183.658 37.8592 183.644 37.9275 183.618 37.9912C183.591 38.0548 183.553 38.1126 183.504 38.1612C183.455 38.2098 183.397 38.2482 183.334 38.2743C183.27 38.3004 183.202 38.3135 183.133 38.3131Z" fill="#FFB85A"/>
<path d="M210.579 38.4873H188.944C188.806 38.4864 188.674 38.4309 188.577 38.3329C188.48 38.235 188.426 38.1026 188.426 37.9645C188.426 37.8265 188.48 37.6941 188.577 37.5961C188.674 37.4982 188.806 37.4427 188.944 37.4418H210.579C210.648 37.4413 210.716 37.4545 210.779 37.4806C210.843 37.5066 210.901 37.545 210.95 37.5936C210.998 37.6422 211.037 37.7 211.064 37.7637C211.09 37.8273 211.104 37.8956 211.104 37.9645C211.104 38.0335 211.09 38.1018 211.064 38.1654C211.037 38.2291 210.998 38.2869 210.95 38.3355C210.901 38.3841 210.843 38.4225 210.779 38.4485C210.716 38.4746 210.648 38.4878 210.579 38.4873H210.579Z" fill="#FFB85A"/>
<path d="M238.024 38.6616H216.389C216.252 38.6606 216.12 38.6051 216.023 38.5072C215.926 38.4093 215.872 38.2768 215.872 38.1388C215.872 38.0008 215.926 37.8683 216.023 37.7704C216.12 37.6725 216.252 37.617 216.389 37.616H238.024C238.162 37.617 238.294 37.6725 238.391 37.7704C238.488 37.8683 238.542 38.0008 238.542 38.1388C238.542 38.2768 238.488 38.4093 238.391 38.5072C238.294 38.6051 238.162 38.6606 238.024 38.6616Z" fill="#FFB85A"/>
<path d="M144.822 33.3277C147.043 33.3277 148.843 31.5218 148.843 29.294C148.843 27.0662 147.043 25.2602 144.822 25.2602C142.601 25.2602 140.801 27.0662 140.801 29.294C140.801 31.5218 142.601 33.3277 144.822 33.3277Z" fill="#FFB85A"/>
<path d="M172.434 33.3277C174.654 33.3277 176.455 31.5218 176.455 29.294C176.455 27.0662 174.654 25.2602 172.434 25.2602C170.213 25.2602 168.413 27.0662 168.413 29.294C168.413 31.5218 170.213 33.3277 172.434 33.3277Z" fill="#FFB85A"/>
<path d="M200.045 33.3277C202.266 33.3277 204.066 31.5218 204.066 29.294C204.066 27.0662 202.266 25.2602 200.045 25.2602C197.824 25.2602 196.024 27.0662 196.024 29.294C196.024 31.5218 197.824 33.3277 200.045 33.3277Z" fill="#FFB85A"/>
<path d="M227.657 33.3277C229.877 33.3277 231.678 31.5218 231.678 29.294C231.678 27.0662 229.877 25.2602 227.657 25.2602C225.436 25.2602 223.635 27.0662 223.635 29.294C223.635 31.5218 225.436 33.3277 227.657 33.3277Z" fill="#FFB85A"/>
</g>
<defs>
<clipPath id="clip0_1_219">
<rect width="255" height="170" fill="white" transform="translate(0 0.744995)"/>
</clipPath>
</defs>
</svg>
