<svg width="292" height="176" viewBox="0 0 292 176" fill="none" xmlns="http://www.w3.org/2000/svg">
<path d="M129.927 95.937C130.033 95.3899 130.018 94.8262 129.883 94.2856C129.748 93.7451 129.496 93.2407 129.145 92.8082C128.795 92.3757 128.354 92.0255 127.854 91.7823C127.354 91.5391 126.806 91.4088 126.25 91.4006L123.04 83.306L117.657 84.0623L122.351 95.4296C122.399 96.3666 122.789 97.2535 123.445 97.922C124.102 98.5905 124.981 98.9943 125.914 99.0569C126.848 99.1194 127.773 98.8364 128.512 98.2614C129.252 97.6864 129.755 96.8593 129.927 95.937V95.937Z" fill="#9F616A"/>
<path d="M120.011 93.0928L118.343 89.1057L107.949 69.2723L108.514 32.5735L108.623 32.5591C115.273 31.6783 119.773 62.3975 119.961 63.7057L126.528 86.2205L128.091 91.1832L120.011 93.0928Z" fill="#FFB85A"/>
<path d="M104.041 170.478L109.094 170.478L111.498 150.938L104.04 150.938L104.041 170.478Z" fill="#9F616A"/>
<path d="M102.752 168.824L112.703 168.824H112.704C114.386 168.824 115.999 169.494 117.188 170.686C118.378 171.878 119.046 173.495 119.046 175.182V175.388L102.752 175.389L102.752 168.824Z" fill="#2F2E41"/>
<path d="M57.5768 162.76L61.7231 165.656L74.8395 151.003L68.7202 146.728L57.5768 162.76Z" fill="#9F616A"/>
<path d="M57.4626 160.664L65.6276 166.368L65.628 166.368C67.0079 167.332 67.9492 168.806 68.245 170.466C68.5408 172.126 68.1668 173.836 67.2052 175.219L67.0874 175.389L53.7189 166.05L57.4626 160.664Z" fill="#2F2E41"/>
<path d="M101.263 165.885L101.045 129.229L97.8654 106.181L91.9374 126.45L91.9259 126.466L70.4436 157.732L62.0846 153.486L62.1304 153.377C62.6412 152.159 74.6784 123.551 77.9139 123.551C78.1964 123.571 78.4796 123.521 78.7389 123.407C78.9982 123.293 79.2259 123.117 79.4024 122.895C80.3521 121.624 79.5787 118.926 79.5708 118.899C78.6446 115.049 80.9734 113.738 81.4372 113.519L82.6848 87.7015L82.8141 87.7105L116.635 90.0887L115.216 122.367L112.164 164.659L112.059 164.671L101.263 165.885Z" fill="#2F2E41"/>
<path d="M117.151 95.8095L117.005 95.7975L80.632 92.8583L80.7217 80.7933L82.502 49.2912L82.5121 49.2693L89.7622 33.4903L94.9015 31.1574L102.4 30.7618L102.418 30.7664L109.261 32.466L116.38 83.6943L117.151 95.8095Z" fill="#FFB85A"/>
<path d="M103.575 26.7179C108.216 24.1746 109.921 18.3413 107.384 13.6888C104.847 9.03635 99.0285 7.32651 94.3876 9.86979C89.7467 12.4131 88.0411 18.2464 90.578 22.8988C93.115 27.5513 98.9338 29.2612 103.575 26.7179Z" fill="#9F616A"/>
<path d="M89.35 20.7038V16.9632C89.35 16.9632 86.3409 13.4104 89.6509 12.5155C89.6509 12.5155 90.5536 3.56598 98.3773 7.74242C98.3773 7.74242 109.21 5.95252 108.006 12.2172C108.006 12.2172 110.714 10.5817 109.812 14.7581L108.066 21.4856C108.066 21.4856 108.909 17.0416 106.201 16.445L104.696 15.55C104.696 15.55 100.484 19.7265 94.1645 14.6551C94.1645 14.6551 91.4564 14.0071 91.7573 16.6919C92.0582 19.3768 89.35 20.7038 89.35 20.7038Z" fill="#2F2E41"/>
<path d="M97.9841 86.7996C97.9901 86.2424 97.8742 85.6906 97.6445 85.1831C97.4149 84.6756 97.077 84.2247 96.6547 83.8623C96.2324 83.4999 95.7359 83.2347 95.2003 83.0854C94.6647 82.9362 94.103 82.9064 93.5547 82.9983L88.9471 75.6127L83.7871 77.3251L90.4401 87.6634C90.6552 88.5766 91.1969 89.3789 91.9626 89.9185C92.7284 90.458 93.6649 90.6972 94.5948 90.5907C95.5247 90.4843 96.3834 90.0395 97.008 89.3408C97.6327 88.6421 97.98 87.7379 97.9841 86.7996V86.7996Z" fill="#9F616A"/>
<path d="M86.0834 84.4715L77.7474 67.5051L77.7548 67.4638C77.7884 67.2759 81.1439 48.5982 83.7103 41.7328C86.2929 34.8239 89.8279 33.4368 89.9772 33.3811L90.0518 33.3533L93.2215 36.4013L88.8307 65.7818L93.5636 79.9517L86.0834 84.4715Z" fill="#FFB85A"/>
<path d="M292 0H275.86V16.1805H292V0Z" fill="#F1F1F1"/>
<path d="M165.685 62.9631H149.545V79.1436H165.685V62.9631Z" fill="#F1F1F1"/>
<path d="M158.604 72.0533H286.208V7.29315H158.604V72.0533Z" fill="white"/>
<path d="M287.261 73.1085H157.551V6.23785H287.261V73.1085ZM159.657 70.998H285.156V8.34835H159.657V70.998Z" fill="#E5E5E5"/>
<path d="M272.098 30.0098H173.921V33.2737H272.098V30.0098Z" fill="#E5E5E5"/>
<path d="M272.098 37.9252H173.921V41.1892H272.098V37.9252Z" fill="#E5E5E5"/>
<path d="M272.098 49.6127H253.852V52.4452H272.098V49.6127Z" fill="#FFB85A"/>
</svg>
